<svg width="244" height="64" viewBox="0 0 244 64" fill="none" xmlns="http://www.w3.org/2000/svg">
<path d="M207.555 18.3644L203.262 26.6109L211.509 30.9038" stroke="black" stroke-width="2" stroke-linecap="round" stroke-linejoin="round"/>
<path d="M196.371 48.4779L199.905 50.3177C200.217 50.4804 200.582 50.5123 200.918 50.4063C201.253 50.3004 201.534 50.0654 201.696 49.7529L211.508 30.9038L207.555 18.3644L193.418 11.0052C193.105 10.8425 192.741 10.8107 192.405 10.9166C192.069 11.0225 191.789 11.2575 191.627 11.57L184.881 24.5288" stroke="black" stroke-width="2" stroke-linecap="round" stroke-linejoin="round"/>
<g filter="url(#filter0_d_119_3)">
<path d="M64.1143 46L62.0063 28.116L61.7003 28.014L60.2043 23.56H64.9303L66.7323 39.676H66.8343L74.8243 23.628H79.3803L75.3343 28.32L66.2903 46H64.1143ZM52.8263 46.782C52.1237 46.782 51.557 46.5893 51.1263 46.204C50.7183 45.8413 50.5143 45.3993 50.5143 44.878C50.5143 44.6287 50.5483 44.436 50.6163 44.3C51.3643 44.2773 52.033 44.1073 52.6223 43.79C53.2117 43.4727 53.7557 42.9853 54.2543 42.328C54.7757 41.648 55.263 40.7753 55.7163 39.71C56.1923 38.622 56.657 37.3187 57.1103 35.8C57.5863 34.2813 58.0737 32.502 58.5723 30.462C59.0937 28.422 59.6717 26.1213 60.3063 23.56L62.3803 26.008C61.587 29.7707 60.8277 32.91 60.1023 35.426C59.3997 37.942 58.7197 39.9593 58.0623 41.478C57.405 42.9967 56.7817 44.13 56.1923 44.878C55.603 45.626 55.025 46.1247 54.4583 46.374C53.9143 46.646 53.3703 46.782 52.8263 46.782ZM52.5543 32.808C51.897 32.808 51.3303 32.6607 50.8543 32.366C50.3783 32.0487 50.0157 31.6067 49.7663 31.04C49.5397 30.4507 49.4263 29.7707 49.4263 29C49.4263 28.2067 49.585 27.4247 49.9023 26.654C50.2197 25.8833 50.6957 25.192 51.3303 24.58C51.965 23.9453 52.747 23.4467 53.6763 23.084C54.6283 22.6987 55.7503 22.506 57.0423 22.506C58.017 22.506 58.9237 22.5853 59.7623 22.744C60.6237 22.9027 61.4623 23.0727 62.2783 23.254C63.0943 23.4127 63.9443 23.5147 64.8283 23.56L62.9243 25.464L60.0343 24.852L59.8643 24.546C59.207 24.3647 58.4703 24.274 57.6543 24.274C56.317 24.274 55.263 24.682 54.4923 25.498C53.7217 26.314 53.325 27.504 53.3023 29.068C53.3023 29.6573 53.3703 30.224 53.5063 30.768C53.6423 31.312 53.835 31.856 54.0843 32.4C53.835 32.5587 53.5743 32.672 53.3023 32.74C53.053 32.7853 52.8037 32.808 52.5543 32.808ZM76.3543 51.372C75.9237 51.372 75.527 51.27 75.1643 51.066C74.8243 50.862 74.5297 50.522 74.2803 50.046C74.0537 49.5927 73.8723 48.9693 73.7363 48.176C73.623 47.4053 73.5777 46.4647 73.6003 45.354C73.6003 44.2207 73.657 42.7927 73.7703 41.07C73.8837 39.3473 74.0763 37.3753 74.3483 35.154C74.643 32.91 75.051 30.4733 75.5723 27.844L75.4023 27.64L74.8583 23.628H79.6183C79.3917 24.8973 79.1423 26.3253 78.8703 27.912C78.5983 29.4987 78.3377 31.142 78.0883 32.842C77.839 34.542 77.635 36.2193 77.4763 37.874C77.3177 39.5287 77.2383 41.07 77.2383 42.498C77.2157 44.3113 77.329 45.8527 77.5783 47.122C77.8277 48.3913 78.2243 49.3207 78.7683 49.91C78.655 50.182 78.4737 50.4313 78.2243 50.658C77.975 50.8847 77.6917 51.0547 77.3743 51.168C77.057 51.304 76.717 51.372 76.3543 51.372ZM86.8898 46.68C85.7112 46.68 84.7365 46.4987 83.9658 46.136C83.2178 45.7733 82.6285 45.2973 82.1978 44.708C81.7672 44.096 81.4612 43.4387 81.2798 42.736C81.1212 42.0107 81.0418 41.308 81.0418 40.628C81.0418 39.0867 81.2232 37.568 81.5858 36.072C81.9712 34.576 82.5492 33.216 83.3198 31.992C84.1132 30.768 85.1105 29.7933 86.3118 29.068C87.5358 28.3427 88.9978 27.98 90.6978 27.98C91.8992 27.98 92.8738 28.1613 93.6218 28.524C94.3698 28.8867 94.9592 29.374 95.3898 29.986C95.8432 30.5753 96.1492 31.2327 96.3078 31.958C96.4665 32.6607 96.5458 33.3407 96.5458 33.998C96.5458 35.5393 96.3532 37.0693 95.9678 38.588C95.6052 40.084 95.0272 41.444 94.2338 42.668C93.4632 43.892 92.4658 44.8667 91.2418 45.592C90.0405 46.3173 88.5898 46.68 86.8898 46.68ZM87.5358 44.64C88.2158 44.64 88.8278 44.4133 89.3718 43.96C89.9158 43.5067 90.3918 42.8947 90.7998 42.124C91.2078 41.3307 91.5365 40.458 91.7858 39.506C92.0578 38.5313 92.2618 37.534 92.3978 36.514C92.5338 35.494 92.6018 34.508 92.6018 33.556C92.6018 32.5133 92.4205 31.6633 92.0578 31.006C91.6952 30.3487 91.0378 30.02 90.0858 30.02C89.4058 30.02 88.7825 30.2467 88.2158 30.7C87.6492 31.1533 87.1618 31.7653 86.7538 32.536C86.3685 33.3067 86.0398 34.1793 85.7678 35.154C85.4958 36.106 85.2918 37.1033 85.1558 38.146C85.0425 39.166 84.9858 40.152 84.9858 41.104C84.9858 42.124 85.1672 42.974 85.5298 43.654C85.9152 44.3113 86.5838 44.64 87.5358 44.64ZM101.861 46.408C101.725 46.408 101.589 46.408 101.453 46.408C101.339 46.408 101.215 46.3967 101.079 46.374C101.033 44.5153 100.977 42.7133 100.909 40.968C100.841 39.2227 100.75 37.5907 100.637 36.072C100.523 34.5307 100.376 33.1933 100.195 32.06C100.081 31.1533 99.934 30.462 99.7527 29.986C99.5714 29.51 99.254 29.1473 98.8007 28.898C99.05 28.6033 99.3674 28.3767 99.7527 28.218C100.161 28.0593 100.625 27.98 101.147 27.98C102.28 27.98 103.051 28.32 103.459 29C103.889 29.6573 104.161 30.6773 104.275 32.06C104.32 32.4227 104.354 32.91 104.377 33.522C104.399 34.1113 104.422 34.8933 104.445 35.868C104.467 36.82 104.479 38.0667 104.479 39.608C104.479 40.152 104.479 40.7527 104.479 41.41C104.479 42.0673 104.467 42.7813 104.445 43.552C105.079 42.7133 105.703 41.784 106.315 40.764C106.927 39.7213 107.482 38.6333 107.981 37.5C108.479 36.3667 108.876 35.2333 109.171 34.1C109.465 32.9667 109.613 31.89 109.613 30.87C109.613 30.5753 109.59 30.258 109.545 29.918C109.522 29.578 109.465 29.238 109.375 28.898C109.669 28.626 110.043 28.4107 110.497 28.252C110.973 28.0707 111.46 27.98 111.959 27.98C112.457 27.98 112.843 28.0707 113.115 28.252C113.387 28.4107 113.568 28.66 113.659 29C113.772 29.3173 113.829 29.7253 113.829 30.224C113.829 31.1987 113.636 32.2867 113.251 33.488C112.888 34.6893 112.401 35.8793 111.789 37.058C111.177 38.2367 110.519 39.3247 109.817 40.322C108.343 42.362 106.995 43.892 105.771 44.912C104.547 45.9093 103.243 46.408 101.861 46.408ZM116.749 46.68C116.024 46.68 115.457 46.476 115.049 46.068C114.641 45.66 114.437 45.0933 114.437 44.368C114.437 44.096 114.46 43.7673 114.505 43.382C114.55 42.9967 114.607 42.6 114.675 42.192C114.743 41.7613 114.811 41.3647 114.879 41.002C114.97 40.6167 115.038 40.288 115.083 40.016L117.395 28.66L121.271 28.252L118.415 42.464C118.392 42.6453 118.358 42.8833 118.313 43.178C118.268 43.45 118.245 43.688 118.245 43.892C118.245 44.232 118.324 44.504 118.483 44.708C118.664 44.912 118.925 45.0253 119.265 45.048C119.129 45.6147 118.812 46.0227 118.313 46.272C117.837 46.544 117.316 46.68 116.749 46.68ZM120.183 25.668C119.458 25.668 118.857 25.498 118.381 25.158C117.905 24.7953 117.667 24.2627 117.667 23.56C117.667 22.812 117.916 22.268 118.415 21.928C118.914 21.5653 119.526 21.384 120.251 21.384C120.976 21.384 121.577 21.5653 122.053 21.928C122.529 22.268 122.767 22.7893 122.767 23.492C122.767 24.24 122.518 24.7953 122.019 25.158C121.52 25.498 120.908 25.668 120.183 25.668ZM129.393 46.68C128.101 46.68 126.979 46.442 126.027 45.966C125.098 45.4673 124.384 44.7193 123.885 43.722C123.386 42.7247 123.137 41.4667 123.137 39.948C123.137 38.52 123.33 37.1033 123.715 35.698C124.123 34.27 124.724 32.978 125.517 31.822C126.31 30.666 127.319 29.7367 128.543 29.034C129.79 28.3313 131.252 27.98 132.929 27.98C133.813 27.98 134.606 28.1047 135.309 28.354C136.012 28.6033 136.567 29.0113 136.975 29.578C137.383 30.1447 137.587 30.9153 137.587 31.89C137.587 33.2047 137.19 34.3153 136.397 35.222C135.626 36.106 134.595 36.786 133.303 37.262C132.011 37.7153 130.583 37.942 129.019 37.942C128.724 37.942 128.396 37.942 128.033 37.942C127.693 37.9193 127.41 37.8967 127.183 37.874C127.16 38.2367 127.138 38.5993 127.115 38.962C127.092 39.302 127.081 39.6193 127.081 39.914C127.081 41.138 127.308 42.1013 127.761 42.804C128.214 43.484 129.042 43.824 130.243 43.824C131.218 43.824 132.09 43.5973 132.861 43.144C133.632 42.668 134.232 41.9993 134.663 41.138C134.98 41.2287 135.196 41.41 135.309 41.682C135.422 41.954 135.479 42.2373 135.479 42.532C135.479 43.212 135.241 43.8693 134.765 44.504C134.289 45.1387 133.598 45.66 132.691 46.068C131.784 46.476 130.685 46.68 129.393 46.68ZM127.421 36.208C128.192 36.208 128.951 36.1287 129.699 35.97C130.47 35.8113 131.172 35.562 131.807 35.222C132.442 34.8593 132.94 34.406 133.303 33.862C133.688 33.2953 133.881 32.638 133.881 31.89C133.881 31.2327 133.722 30.7453 133.405 30.428C133.11 30.088 132.68 29.918 132.113 29.918C131.478 29.918 130.889 30.122 130.345 30.53C129.824 30.9153 129.37 31.4253 128.985 32.06C128.6 32.6947 128.271 33.3747 127.999 34.1C127.75 34.8253 127.557 35.528 127.421 36.208ZM151.426 37.466C151.222 37.466 150.961 37.466 150.644 37.466C150.327 37.466 150.089 37.4547 149.93 37.432L150.406 35.528H151.358C152.967 35.528 154.237 35.2333 155.166 34.644C156.118 34.032 156.809 33.2727 157.24 32.366C157.671 31.4367 157.886 30.5187 157.886 29.612C157.886 28.5467 157.625 27.6627 157.104 26.96C156.583 26.2347 155.857 25.6907 154.928 25.328C153.999 24.9653 152.911 24.784 151.664 24.784C150.712 24.784 149.737 24.92 148.74 25.192C147.765 25.4413 146.847 25.8493 145.986 26.416C145.125 26.9827 144.433 27.7193 143.912 28.626C143.391 29.5327 143.13 30.6433 143.13 31.958C143.13 32.5247 143.198 33.046 143.334 33.522C143.47 33.998 143.697 34.5533 144.014 35.188C143.765 35.392 143.481 35.5507 143.164 35.664C142.847 35.7547 142.518 35.8 142.178 35.8C141.589 35.8 141.056 35.6413 140.58 35.324C140.127 35.0067 139.775 34.5647 139.526 33.998C139.277 33.4087 139.152 32.74 139.152 31.992C139.152 30.7 139.469 29.51 140.104 28.422C140.761 27.3113 141.668 26.3367 142.824 25.498C144.003 24.6593 145.385 24.002 146.972 23.526C148.581 23.05 150.327 22.812 152.208 22.812C153.681 22.812 155.007 22.9707 156.186 23.288C157.365 23.5827 158.373 24.0247 159.212 24.614C160.051 25.1807 160.697 25.8833 161.15 26.722C161.603 27.538 161.83 28.4787 161.83 29.544C161.83 30.7227 161.558 31.7993 161.014 32.774C160.47 33.7487 159.711 34.5873 158.736 35.29C157.784 35.97 156.673 36.5027 155.404 36.888C154.157 37.2733 152.831 37.466 151.426 37.466ZM145.714 46.476C145.374 46.476 145.023 46.4193 144.66 46.306C144.297 46.1927 144.003 46.0113 143.776 45.762C144.025 45.558 144.252 45.286 144.456 44.946C144.66 44.606 144.841 44.2093 145 43.756C145.159 43.3027 145.283 42.8153 145.374 42.294L147.856 29.714C148.015 28.966 148.219 28.3427 148.468 27.844C148.74 27.3453 149.091 26.9713 149.522 26.722C149.953 26.45 150.485 26.314 151.12 26.314C151.777 26.314 152.287 26.45 152.65 26.722C153.035 26.9713 153.262 27.2773 153.33 27.64C152.763 27.912 152.378 28.3313 152.174 28.898C151.993 29.442 151.834 30.0313 151.698 30.666L149.046 43.62C148.933 44.2547 148.717 44.7873 148.4 45.218C148.083 45.626 147.697 45.932 147.244 46.136C146.791 46.3627 146.281 46.476 145.714 46.476ZM166.747 46.68C165.591 46.68 164.65 46.408 163.925 45.864C163.222 45.2973 162.701 44.538 162.361 43.586C162.044 42.6113 161.885 41.5007 161.885 40.254C161.885 38.5767 162.112 37.0013 162.565 35.528C163.018 34.032 163.664 32.7173 164.503 31.584C165.364 30.4507 166.362 29.5667 167.495 28.932C168.628 28.2973 169.875 27.98 171.235 27.98C172.346 27.98 173.513 28.218 174.737 28.694L178.171 28.252L175.451 42.464C175.428 42.668 175.394 42.906 175.349 43.178C175.304 43.45 175.281 43.688 175.281 43.892C175.281 44.232 175.36 44.504 175.519 44.708C175.7 44.912 175.972 45.0253 176.335 45.048C176.222 45.4333 176.029 45.7507 175.757 46C175.508 46.2267 175.213 46.3967 174.873 46.51C174.556 46.6233 174.193 46.68 173.785 46.68C173.173 46.68 172.652 46.51 172.221 46.17C171.79 45.8527 171.541 45.3767 171.473 44.742C170.884 45.3087 170.181 45.7733 169.365 46.136C168.572 46.4987 167.699 46.68 166.747 46.68ZM168.243 44.64C169.104 44.64 169.796 44.3567 170.317 43.79C170.861 43.2233 171.292 42.5207 171.609 41.682C171.926 40.8207 172.164 39.9933 172.323 39.2L173.819 31.074C173.366 30.7113 172.89 30.4507 172.391 30.292C171.915 30.1107 171.473 30.02 171.065 30.02C170.362 30.02 169.728 30.224 169.161 30.632C168.617 31.04 168.13 31.5953 167.699 32.298C167.291 33.0007 166.94 33.8167 166.645 34.746C166.373 35.6753 166.169 36.6727 166.033 37.738C165.897 38.7807 165.829 39.8347 165.829 40.9C165.829 41.9427 165.999 42.8267 166.339 43.552C166.679 44.2773 167.314 44.64 168.243 44.64ZM184.677 46.68C183.521 46.68 182.58 46.408 181.855 45.864C181.152 45.2973 180.631 44.538 180.291 43.586C179.973 42.6113 179.815 41.5007 179.815 40.254C179.815 38.5767 180.041 37.0013 180.495 35.528C180.971 34.032 181.617 32.7173 182.433 31.584C183.271 30.4507 184.269 29.5667 185.425 28.932C186.581 28.2973 187.827 27.98 189.165 27.98C189.845 27.98 190.457 28.048 191.001 28.184C191.567 28.2973 192.168 28.4787 192.803 28.728L195.965 29.204C195.557 31.38 195.137 33.5787 194.707 35.8C194.299 37.9987 193.857 40.22 193.381 42.464C193.358 42.668 193.324 42.906 193.279 43.178C193.233 43.45 193.211 43.688 193.211 43.892C193.211 44.232 193.29 44.504 193.449 44.708C193.63 44.912 193.902 45.0253 194.265 45.048C194.151 45.4333 193.959 45.7507 193.687 46C193.437 46.2267 193.143 46.3967 192.803 46.51C192.485 46.6233 192.123 46.68 191.715 46.68C191.103 46.68 190.581 46.51 190.151 46.17C189.72 45.8527 189.471 45.3767 189.403 44.742C188.813 45.3087 188.111 45.7733 187.295 46.136C186.501 46.4987 185.629 46.68 184.677 46.68ZM186.173 44.64C187.034 44.64 187.725 44.3567 188.247 43.79C188.791 43.2233 189.221 42.5207 189.539 41.682C189.856 40.8207 190.094 39.9933 190.253 39.2L191.749 31.074C191.295 30.7113 190.819 30.4507 190.321 30.292C189.845 30.1107 189.403 30.02 188.995 30.02C188.292 30.02 187.657 30.224 187.091 30.632C186.547 31.04 186.059 31.5953 185.629 32.298C185.221 33.0007 184.869 33.8167 184.575 34.746C184.303 35.6753 184.099 36.6727 183.963 37.738C183.827 38.7807 183.759 39.8347 183.759 40.9C183.759 41.9427 183.929 42.8267 184.269 43.552C184.609 44.2773 185.243 44.64 186.173 44.64ZM195.897 29.544L192.157 29.272C192.383 28.0253 192.576 26.7673 192.735 25.498C192.916 24.2287 193.018 23.1407 193.041 22.234C193.041 21.962 193.029 21.7127 193.007 21.486C193.007 21.2593 192.984 21.044 192.939 20.84C193.143 20.704 193.403 20.5907 193.721 20.5C194.038 20.4093 194.378 20.364 194.741 20.364C195.33 20.364 195.874 20.5453 196.373 20.908C196.871 21.248 197.121 21.8713 197.121 22.778C197.121 23.0273 197.053 23.5147 196.917 24.24C196.803 24.9653 196.656 25.804 196.475 26.756C196.293 27.708 196.101 28.6373 195.897 29.544Z" fill="black"/>
</g>
<defs>
<filter id="filter0_d_119_3" x="45.4263" y="17.364" width="155.694" height="39.008" filterUnits="userSpaceOnUse" color-interpolation-filters="sRGB">
<feFlood flood-opacity="0" result="BackgroundImageFix"/>
<feColorMatrix in="SourceAlpha" type="matrix" values="0 0 0 0 0 0 0 0 0 0 0 0 0 0 0 0 0 0 127 0" result="hardAlpha"/>
<feOffset dy="1"/>
<feGaussianBlur stdDeviation="2"/>
<feComposite in2="hardAlpha" operator="out"/>
<feColorMatrix type="matrix" values="0 0 0 0 0 0 0 0 0 0 0 0 0 0 0 0 0 0 0.25 0"/>
<feBlend mode="normal" in2="BackgroundImageFix" result="effect1_dropShadow_119_3"/>
<feBlend mode="normal" in="SourceGraphic" in2="effect1_dropShadow_119_3" result="shape"/>
</filter>
</defs>
</svg>
